<?xml version="1.0" standalone="no"?>
<svg xmlns:xlink="http://www.w3.org/1999/xlink" id="wave" style="transform:rotate(0deg); transition: 0.3s" viewBox="0 0 1440 490" version="1.1" xmlns="http://www.w3.org/2000/svg"><defs><linearGradient id="sw-gradient-0" x1="0" x2="0" y1="1" y2="0"><stop stop-color="rgba(22, 25, 80, 1)" offset="0%"/><stop stop-color="rgba(22, 25, 80, 1)" offset="100%"/></linearGradient></defs><path style="transform:translate(0, 0px); opacity:1" fill="url(#sw-gradient-0)" d="M0,392L48,367.5C96,343,192,294,288,236.8C384,180,480,114,576,147C672,180,768,310,864,302.2C960,294,1056,147,1152,106.2C1248,65,1344,131,1440,187.8C1536,245,1632,294,1728,326.7C1824,359,1920,376,2016,326.7C2112,278,2208,163,2304,98C2400,33,2496,16,2592,81.7C2688,147,2784,294,2880,367.5C2976,441,3072,441,3168,424.7C3264,408,3360,376,3456,367.5C3552,359,3648,376,3744,367.5C3840,359,3936,327,4032,310.3C4128,294,4224,294,4320,285.8C4416,278,4512,261,4608,245C4704,229,4800,212,4896,236.8C4992,261,5088,327,5184,302.2C5280,278,5376,163,5472,114.3C5568,65,5664,82,5760,89.8C5856,98,5952,98,6048,122.5C6144,147,6240,196,6336,236.8C6432,278,6528,310,6624,343C6720,376,6816,408,6864,424.7L6912,441L6912,490L6864,490C6816,490,6720,490,6624,490C6528,490,6432,490,6336,490C6240,490,6144,490,6048,490C5952,490,5856,490,5760,490C5664,490,5568,490,5472,490C5376,490,5280,490,5184,490C5088,490,4992,490,4896,490C4800,490,4704,490,4608,490C4512,490,4416,490,4320,490C4224,490,4128,490,4032,490C3936,490,3840,490,3744,490C3648,490,3552,490,3456,490C3360,490,3264,490,3168,490C3072,490,2976,490,2880,490C2784,490,2688,490,2592,490C2496,490,2400,490,2304,490C2208,490,2112,490,2016,490C1920,490,1824,490,1728,490C1632,490,1536,490,1440,490C1344,490,1248,490,1152,490C1056,490,960,490,864,490C768,490,672,490,576,490C480,490,384,490,288,490C192,490,96,490,48,490L0,490Z"/></svg>